<?xml version="1.0" encoding="utf-8"?>
<!-- Generator: Adobe Illustrator 16.0.0, SVG Export Plug-In . SVG Version: 6.00 Build 0)  -->
<!DOCTYPE svg PUBLIC "-//W3C//DTD SVG 1.1//EN" "http://www.w3.org/Graphics/SVG/1.1/DTD/svg11.dtd">
<svg version="1.1" xmlns="http://www.w3.org/2000/svg" xmlns:xlink="http://www.w3.org/1999/xlink" x="0px" y="0px" width="3428px"
	 height="422px" viewBox="0 0 3428 422" enable-background="new 0 0 3428 422" xml:space="preserve">

	 <filter id="drop-shadow" height="130%">
	 	<feGaussianBlur in="SourceAlpha" stdDeviation="10" />

	 	<feMerge>
	 		<feMergeNode />
	 		<feMergeNode in="SourceGraphic" />
	 	</feMerge>
	 </filter>

	<g>
		<rect x="-2" y="-2" fill="#73A433" width="3430" height="425"/>
		<text transform="matrix(1 0 0 1 654 299)" fill="#FFFFFF" font-family="'Open Sans'" font-size="250" style="filter: url(#drop-shadow)">Sign In through Steam</text>
		<circle opacity="0.3" fill="#FFFFFF" cx="79" cy="210" r="503"/>
		<path fill="#FFFFFF" d="M390.968,17.366c-62.393,0-113.176,50.787-113.176,113.19c0,0.477,0.029,0.98,0.029,1.468
			l-72.945,105.734c-11.786-0.498-23.66,1.541-34.909,6.193c-4.925,2.026-9.578,4.514-13.937,7.361L-172.6,115.427
			c-5.53-25.586-23.047-48.145-48.967-58.94c-42.069-17.531-90.555,2.422-108.083,44.487
			c-17.514,42.054,2.447,90.559,44.508,108.079c20.36,8.461,42.846,8.509,63.251,0.113c4.696-1.93,9.147-4.289,13.333-7.023
			l329.376,136.19c5.673,25.317,23.124,47.583,48.838,58.313c42.065,17.523,90.537-2.451,108.046-44.527
			c4.572-10.912,6.678-22.453,6.355-33.93l104.362-74.483c0.852,0.048,1.695,0.048,2.547,0.048
			c62.429,0,113.198-50.776,113.198-113.19C504.166,68.156,453.397,17.366,390.968,17.366z M-233.338,90.311
			c-23.928-9.951-51.414,1.361-61.38,25.285c-9.974,23.932,1.346,51.418,25.274,61.376l37.812,15.624
			c-7.108,2.605-14.505,3.915-21.884,3.915c-8.256,0-16.508-1.618-24.368-4.898c-24.445-10.178-39.225-33.955-39.225-58.94
			c0-8.149,1.596-16.438,4.913-24.441c13.502-32.425,50.912-47.833,83.355-34.322c15.264,6.37,26.694,18.057,33.185,32
			L-233.338,90.311z M260.275,344.857c-13.503,32.473-50.915,47.859-83.366,34.338c-14.978-6.249-26.272-17.631-32.84-31.268
			l36.899,15.27c5.885,2.465,12.005,3.609,18.023,3.609c18.383,0,35.828-10.857,43.342-28.898
			c9.973-23.913-1.35-51.4-25.282-61.355l-38.073-15.781c14.678-5.514,31.387-5.783,46.989,0.72
			c15.727,6.563,27.946,18.834,34.447,34.602C266.873,311.826,266.843,329.16,260.275,344.857z M390.968,205.975
			c-41.558,0-75.418-33.828-75.418-75.419c0-41.583,33.868-75.426,75.418-75.426c41.609,0,75.426,33.838,75.426,75.426
			C466.395,172.147,432.577,205.975,390.968,205.975z" style="filter: url(#drop-shadow)"/>
		<path fill="#FFFFFF" d="M391.085,73.777c-31.277,0-56.625,25.362-56.625,56.639c0,31.307,25.347,56.669,56.625,56.669
			c31.306,0,56.683-25.362,56.683-56.669C447.769,99.139,422.392,73.777,391.085,73.777z" style="filter: url(#drop-shadow)"/>
	</g>
</svg>
